<?xml version="1.0" standalone="no"?>
<!DOCTYPE svg PUBLIC "-//W3C//DTD SVG 20010904//EN"
 "http://www.w3.org/TR/2001/REC-SVG-20010904/DTD/svg10.dtd">
<svg version="1.0" xmlns="http://www.w3.org/2000/svg"
 width="225.000000pt" height="225.000000pt" viewBox="0 0 225.000000 225.000000"
 preserveAspectRatio="xMidYMid meet">

<g transform="translate(0.000000,225.000000) scale(0.100000,-0.100000)"
fill="#000000" stroke="none">
<path d="M1930 2050 c0 -7 -3 -10 -6 -7 -8 8 -64 -24 -64 -36 0 -4 -3 -6 -8
-3 -4 2 -15 -2 -25 -9 -15 -11 -16 -13 -2 -19 9 -3 23 3 32 14 10 11 26 20 36
20 10 0 16 4 12 9 -3 5 -1 12 5 16 5 3 10 0 10 -7 0 -8 5 -6 11 5 6 10 8 21 5
24 -3 4 -6 0 -6 -7z"/>
<path d="M665 1864 c-137 -80 -253 -149 -258 -153 -10 -10 -19 -523 -9 -537 4
-6 17 -16 28 -22 38 -20 46 24 46 237 -1 182 0 191 19 191 10 0 19 6 19 13 0
12 72 67 88 67 4 0 27 13 51 29 48 32 79 31 40 -2 l-24 -19 26 15 c15 9 50 19
78 23 55 7 57 10 37 37 -16 20 -26 22 -26 4 0 -6 -16 -17 -35 -23 -41 -13 -48
2 -8 17 16 6 36 17 45 26 10 9 25 12 37 8 11 -3 29 -1 38 5 15 9 13 10 -10 5
-40 -8 -26 8 33 39 40 21 50 23 50 11 0 -14 -5 -17 -39 -19 -8 -1 -16 -6 -18
-12 -2 -7 5 -10 20 -7 28 5 45 -13 28 -30 -13 -13 -15 -77 -2 -77 4 0 5 -18 1
-39 -4 -21 -3 -47 3 -56 6 -11 6 -25 -1 -40 -8 -17 -8 -25 1 -28 8 -2 9 -22 1
-76 -5 -40 -7 -74 -4 -76 4 -2 6 -18 5 -34 -1 -22 7 -39 32 -63 l33 -32 0 366
c0 396 0 399 -53 397 -12 0 -134 -66 -272 -145z"/>
<path d="M1932 1984 c-2 -33 -19 -52 -66 -76 -23 -12 -26 -16 -12 -21 9 -4 14
-3 11 2 -4 8 25 24 47 26 19 1 29 26 25 61 -3 33 -4 35 -5 8z"/>
<path d="M1780 1949 c-17 -13 -18 -17 -5 -10 33 17 51 31 40 31 -5 0 -21 -10
-35 -21z"/>
<path d="M1725 1937 c-15 -12 -16 -15 -4 -22 8 -5 11 -5 7 0 -4 4 0 14 10 21
23 18 11 18 -13 1z"/>
<path d="M1837 1943 c-4 -3 -7 -11 -7 -17 0 -6 5 -5 12 2 6 6 9 14 7 17 -3 3
-9 2 -12 -2z"/>
<path d="M1660 1866 c0 -83 13 -96 69 -64 23 13 41 29 41 36 0 6 5 12 11 12 5
0 7 -5 3 -12 -4 -7 -3 -8 4 -4 7 4 12 2 12 -3 0 -17 20 -13 27 5 3 9 -2 23
-12 32 -10 9 -14 11 -10 4 4 -9 2 -12 -6 -11 -19 4 -61 -20 -54 -30 4 -8 -15
-20 -33 -21 -17 0 -5 37 18 58 17 15 19 20 8 16 -10 -3 -18 -10 -18 -15 0 -5
-6 -9 -13 -9 -7 0 -13 9 -13 20 0 11 4 20 9 20 5 0 4 7 -3 15 -27 33 -40 17
-40 -49z m160 -22 c0 -8 -5 -12 -10 -9 -6 4 -8 11 -5 16 9 14 15 11 15 -7z"/>
<path d="M874 1778 c-11 -16 -11 -37 -2 -64 3 -12 2 -26 -3 -31 -6 -6 0 -17
16 -31 l24 -21 -5 72 c-6 75 -16 98 -30 75z m26 -96 c0 -5 -7 -9 -15 -9 -8 0
-12 4 -9 9 3 4 9 8 15 8 5 0 9 -4 9 -8z"/>
<path d="M1253 1718 c-42 -48 -39 -78 8 -78 22 0 29 -5 29 -19 0 -10 7 -25 17
-32 15 -13 15 -12 3 7 -17 27 -5 78 15 70 9 -3 20 4 26 17 11 19 10 21 -3 9
-11 -9 -18 -10 -23 -2 -3 5 -1 10 6 10 7 0 10 2 7 5 -8 8 -39 -6 -33 -15 3 -5
-5 -5 -17 -2 -19 5 -20 7 -5 10 9 2 15 8 12 13 -4 5 6 9 20 9 15 0 24 4 20 10
-11 18 -61 11 -82 -12z m29 -47 c8 12 9 12 6 0 -2 -8 -11 -15 -20 -17 -12 -1
-15 3 -10 14 4 12 7 13 10 3 4 -11 6 -11 14 0z"/>
<path d="M1735 1720 c3 -5 -3 -10 -14 -10 -32 0 -24 -25 14 -46 11 -6 22 -24
25 -40 4 -23 7 -25 12 -11 8 20 34 23 40 5 7 -19 -2 -38 -18 -38 -20 0 -17
-17 6 -40 30 -30 48 -25 81 28 23 36 29 57 27 87 -4 58 -30 75 -113 75 -41 0
-64 -4 -60 -10z"/>
<path d="M755 1680 c-72 -8 -90 -15 -102 -42 -8 -19 -9 -19 -23 -2 -14 16 -13
17 3 11 11 -4 17 -2 17 8 0 16 -18 12 -63 -16 -21 -12 -25 -19 -16 -25 7 -4
14 -3 17 4 2 7 8 12 14 12 6 0 7 -7 4 -16 -4 -12 -2 -15 9 -10 17 6 21 -9 5
-19 -5 -3 -10 -23 -10 -43 0 -25 -7 -43 -20 -55 -12 -10 -20 -12 -20 -5 0 6
-2 9 -5 7 -2 -3 0 -21 5 -40 11 -37 -7 -95 -42 -133 -33 -36 -19 -38 15 -3 22
24 46 38 72 42 22 4 48 14 58 23 22 19 23 72 2 72 -9 0 -21 11 -27 25 -9 21
-9 29 5 42 13 13 19 14 31 4 9 -8 13 -17 10 -22 -3 -5 0 -9 5 -9 6 0 11 7 11
15 0 8 5 15 12 15 32 0 97 43 109 72 12 28 13 29 26 12 19 -26 17 -55 -4 -47
-11 4 -14 3 -9 -5 4 -7 14 -12 22 -12 10 0 14 -13 15 -47 l1 -48 8 51 c4 29
11 57 14 63 14 21 -41 111 -74 122 -8 2 -42 2 -75 -1z"/>
<path d="M1152 1664 c-28 -20 -55 -92 -47 -130 5 -31 35 -69 35 -45 0 6 4 10
9 9 5 -2 9 0 10 5 1 4 -2 7 -5 6 -13 -2 -23 25 -15 40 4 9 6 26 5 39 0 12 3
22 7 22 5 0 9 -10 9 -22 0 -41 17 -53 24 -18 10 51 8 60 -11 54 -14 -5 -15 -4
-4 4 16 12 44 4 35 -9 -3 -5 0 -9 5 -9 6 0 11 7 11 15 0 8 -4 15 -10 15 -5 0
-7 6 -4 14 7 19 -31 27 -54 10z"/>
<path d="M1345 1633 c-7 -26 -8 -26 -15 -8 -6 13 -9 15 -9 5 0 -8 3 -21 8 -28
6 -10 12 -5 21 18 7 17 10 33 8 36 -3 3 -9 -8 -13 -23z"/>
<path d="M1237 1623 c-4 -3 -7 -13 -6 -22 0 -12 3 -11 9 4 9 20 9 20 9 0 1
-12 -4 -26 -10 -32 -7 -7 -8 -17 -2 -27 7 -12 11 -4 19 34 8 37 8 50 -1 50 -6
0 -15 -3 -18 -7z"/>
<path d="M531 1574 c-17 -14 -31 -30 -31 -35 0 -14 38 -11 43 4 2 6 8 9 12 5
4 -4 2 -14 -4 -22 -9 -11 -9 -16 1 -22 7 -4 10 -4 6 1 -4 4 -3 14 3 22 6 7 9
22 6 33 -3 11 -1 20 4 20 5 0 9 5 9 10 0 17 -17 11 -49 -16z"/>
<path d="M1200 1585 c0 -8 2 -15 4 -15 2 0 6 7 10 15 3 8 1 15 -4 15 -6 0 -10
-7 -10 -15z"/>
<path d="M582 1536 c1 -19 6 -32 10 -30 12 8 10 64 -2 64 -6 0 -10 -15 -8 -34z"/>
<path d="M1272 1553 c2 -11 11 -17 22 -15 17 3 16 1 -4 -27 -12 -17 -26 -28
-32 -25 -7 4 -8 2 -4 -5 6 -9 11 -9 22 0 21 17 57 79 50 86 -3 4 -6 1 -6 -5 0
-7 -7 -12 -15 -12 -8 0 -15 5 -15 10 0 6 -5 10 -11 10 -6 0 -9 -8 -7 -17z"/>
<path d="M150 1526 c0 -20 5 -36 11 -36 12 0 2 -83 -10 -88 -4 -1 -6 -16 -3
-32 3 -20 9 -28 23 -27 10 1 15 6 10 12 -12 16 -14 75 -2 75 6 0 8 12 5 30 -7
33 2 80 15 80 16 0 19 -39 5 -77 -16 -46 -17 -66 -4 -58 6 3 10 18 10 33 0 34
14 57 29 48 6 -4 11 -2 11 4 0 6 5 8 11 4 7 -4 10 -1 7 7 -3 8 -12 13 -20 11
-9 -1 -18 7 -21 18 -3 12 -13 20 -25 20 -11 0 -27 3 -36 6 -13 5 -16 -1 -16
-30z"/>
<path d="M1151 1544 c0 -11 3 -14 6 -6 3 7 2 16 -1 19 -3 4 -6 -2 -5 -13z"/>
<path d="M1191 1544 c0 -11 3 -14 6 -6 3 7 2 16 -1 19 -3 4 -6 -2 -5 -13z"/>
<path d="M291 1524 c0 -11 3 -14 6 -6 3 7 2 16 -1 19 -3 4 -6 -2 -5 -13z"/>
<path d="M765 1520 c-3 -5 -1 -10 4 -10 6 0 11 5 11 10 0 6 -2 10 -4 10 -3 0
-8 -4 -11 -10z"/>
<path d="M840 1520 c0 -5 5 -10 10 -10 6 0 10 5 10 10 0 6 -4 10 -10 10 -5 0
-10 -4 -10 -10z"/>
<path d="M1261 1514 c0 -11 3 -14 6 -6 3 7 2 16 -1 19 -3 4 -6 -2 -5 -13z"/>
<path d="M490 1510 c0 -5 5 -10 10 -10 6 0 10 5 10 10 0 6 -4 10 -10 10 -5 0
-10 -4 -10 -10z"/>
<path d="M1211 1497 c-6 -6 -16 -13 -21 -13 -6 -1 -14 -2 -20 -3 -5 0 -10 -6
-10 -12 0 -5 5 -7 10 -4 6 3 10 1 10 -4 0 -6 9 -2 21 10 11 11 23 18 26 15 3
-3 -2 -13 -11 -22 -9 -9 -14 -19 -11 -23 4 -3 12 2 19 11 7 10 17 14 21 10 6
-5 -11 35 -20 45 -1 2 -7 -3 -14 -10z"/>
<path d="M1733 1491 c-8 -7 -11 -22 -8 -35 5 -15 4 -17 -3 -7 -17 24 -58 4
-107 -54 -49 -57 -52 -76 -16 -109 18 -16 21 -15 70 32 33 32 51 57 51 73 0
19 2 21 10 9 5 -8 7 -22 4 -32 -2 -9 0 -19 6 -23 14 -9 28 4 15 13 -6 4 -11
17 -12 28 -2 17 2 21 17 17 22 -6 28 13 8 20 -7 2 19 3 57 3 69 -1 70 -1 73
27 2 15 8 25 13 21 5 -3 7 -10 4 -15 -4 -5 -1 -9 6 -9 7 0 9 -10 7 -25 -3 -13
-1 -22 3 -19 5 3 9 1 9 -5 0 -19 -21 -23 -39 -7 -19 18 -61 22 -61 6 0 -5 -18
-10 -40 -10 -22 0 -40 -4 -40 -10 0 -12 4 -12 53 -1 24 6 51 6 70 -1 18 -5 39
-12 47 -14 8 -3 10 -8 5 -12 -15 -10 -12 -35 6 -55 14 -15 20 -16 42 -6 14 6
28 17 31 24 2 8 -11 45 -29 85 -29 59 -41 74 -72 87 -48 21 -161 23 -180 4z
m8 -64 c-10 -9 -11 -8 -5 6 3 10 9 15 12 12 3 -3 0 -11 -7 -18z"/>
<path d="M285 1490 c-3 -5 -1 -10 4 -10 6 0 11 5 11 10 0 6 -2 10 -4 10 -3 0
-8 -4 -11 -10z"/>
<path d="M250 1473 c-17 -7 -30 -23 -30 -38 1 -5 5 -2 11 8 5 9 17 17 24 17 8
0 15 5 15 10 0 6 -1 10 -2 9 -2 0 -10 -3 -18 -6z"/>
<path d="M134 1455 c-13 -10 -14 -14 -5 -15 11 0 11 -3 0 -17 -12 -14 -12 -16
0 -11 8 2 18 16 22 31 8 32 9 31 -17 12z"/>
<path d="M80 1417 c0 -40 21 -55 42 -29 8 10 8 13 1 9 -8 -5 -13 2 -15 20 -5
41 -28 41 -28 0z"/>
<path d="M508 1420 c-9 -63 25 -66 38 -2 6 28 4 32 -14 32 -14 0 -21 -8 -24
-30z"/>
<path d="M1235 1440 c3 -5 8 -10 11 -10 2 0 4 5 4 10 0 6 -5 10 -11 10 -5 0
-7 -4 -4 -10z"/>
<path d="M859 1420 c-12 -18 -24 -24 -45 -22 -27 2 -27 1 -8 -13 10 -8 24 -15
29 -15 6 0 22 -7 37 -14 19 -10 30 -11 34 -4 4 7 2 8 -4 4 -11 -7 -18 12 -24
64 l-3 24 -16 -24z"/>
<path d="M221 1388 c-1 -10 -5 -18 -11 -18 -5 0 -10 -5 -10 -12 0 -8 6 -7 16
4 9 9 14 22 11 30 -4 9 -6 7 -6 -4z"/>
<path d="M486 1343 c-8 -21 -7 -25 3 -19 5 4 11 0 14 -6 5 -16 12 -10 21 17 4
16 1 21 -13 22 -11 1 -22 -5 -25 -14z"/>
<path d="M1699 1318 c-10 -17 -13 -46 -9 -103 4 -66 8 -80 23 -83 15 -3 17 6
17 80 0 52 5 89 12 96 7 7 8 12 4 12 -5 0 -15 -8 -23 -17 -12 -16 -13 -15 -7
10 7 33 1 35 -17 5z"/>
<path d="M1261 1301 c-8 -5 -25 -7 -39 -5 -16 3 -38 -4 -61 -20 -20 -14 -48
-28 -62 -31 -24 -6 -28 -16 -56 -136 l-30 -130 24 6 c63 16 188 71 191 85 1 8
-12 23 -29 32 -41 24 -35 48 16 62 34 10 41 17 51 51 28 98 27 106 -5 86z"/>
<path d="M1870 1216 c0 -68 2 -74 23 -81 21 -6 21 -7 -8 -20 -33 -16 -155 -20
-155 -6 0 5 -10 7 -22 3 -14 -3 -19 -2 -14 6 4 7 2 12 -3 12 -13 0 -17 -196
-12 -491 4 -194 3 -197 -19 -220 -21 -22 -22 -22 -16 -4 6 20 6 20 -9 1 -14
-19 -15 -19 -15 -2 0 30 -27 1 -32 -35 l-5 -30 91 3 91 3 1 65 c1 94 24 436
33 495 l8 50 2 -45 c1 -25 5 -72 11 -105 5 -33 14 -98 19 -144 9 -83 9 -85
-15 -104 l-24 -19 36 -44 c32 -39 71 -58 76 -36 1 7 2 17 12 102 12 109 26
148 47 134 5 -3 9 4 9 14 0 22 23 46 34 35 4 -4 4 0 0 10 -4 12 8 34 40 72 61
71 78 103 65 127 -32 59 -137 6 -180 -92 -8 -16 -16 -30 -19 -30 -3 0 -4 82
-3 182 3 227 -1 268 -28 268 -17 0 -19 -7 -19 -74z m167 -299 c-25 -24 -59
-74 -76 -111 -18 -36 -34 -66 -36 -66 -9 0 16 65 41 107 26 45 103 127 111
119 2 -2 -16 -24 -40 -49z m-190 -362 c0 -8 -4 -12 -9 -9 -4 3 -8 9 -8 15 0 5
4 9 8 9 5 0 9 -7 9 -15z"/>
<path d="M586 1144 c-6 -16 12 -60 21 -51 2 3 0 14 -5 24 -5 10 -7 24 -5 31 7
18 -4 15 -11 -4z"/>
<path d="M915 1141 c2 -5 6 -79 8 -165 4 -123 2 -156 -8 -156 -8 0 -15 5 -17
11 -3 8 -14 6 -36 -5 -18 -9 -58 -20 -90 -24 l-57 -7 -5 -50 -5 -50 -80 -47
c-44 -27 -83 -48 -87 -48 -5 0 -8 9 -8 20 0 11 -4 20 -10 20 -5 0 -10 -4 -10
-9 0 -5 -7 -12 -16 -15 -8 -3 -12 -2 -9 4 3 6 1 10 -4 10 -7 0 -11 64 -11 193
l0 192 -35 11 c-40 13 -36 25 -38 -113 0 -46 -3 -83 -7 -83 -3 0 -12 11 -20
24 -44 71 -146 111 -170 67 -16 -30 -13 -35 32 -68 70 -51 88 -69 88 -92 0
-27 -18 -27 -29 1 -5 15 -9 17 -13 7 -3 -8 5 -22 18 -32 13 -10 24 -14 24 -9
0 5 7 9 15 9 18 0 19 -9 3 -25 -10 -10 -8 -14 10 -19 15 -3 21 -11 18 -20 -3
-7 1 -16 9 -19 9 -4 15 -19 15 -39 0 -33 -10 -39 -39 -21 -9 6 -12 5 -9 -5 3
-8 13 -14 24 -14 13 0 20 -8 22 -25 8 -73 13 -89 35 -96 12 -5 27 -7 34 -6 17
4 494 280 516 299 15 14 17 37 17 189 l0 174 -27 17 c-28 18 -56 26 -48 14z
m-646 -236 c16 -8 49 -37 73 -64 44 -48 45 -52 45 -115 0 -56 -2 -62 -12 -43
-6 12 -18 21 -25 19 -11 -2 -11 0 -1 11 6 8 11 19 10 23 -1 5 -1 16 0 24 1 13
2 13 11 0 7 -11 10 -12 10 -2 0 32 -70 111 -121 137 -16 9 -29 18 -29 20 0 8
10 6 39 -10z m76 -134 c3 -5 1 -12 -5 -16 -5 -3 -10 1 -10 9 0 18 6 21 15 7z
m395 -105 c0 -8 -8 -22 -17 -32 -17 -17 -18 -17 -21 0 -4 18 14 46 29 46 5 0
9 -6 9 -14z"/>
<path d="M1778 1133 c7 -3 16 -2 19 1 4 3 -2 6 -13 5 -11 0 -14 -3 -6 -6z"/>
<path d="M890 1098 c0 -25 3 -29 10 -18 13 20 13 50 0 50 -5 0 -10 -15 -10
-32z"/>
<path d="M1795 1120 l-50 -7 45 0 c25 -1 56 3 70 7 31 10 8 10 -65 0z"/>
<path d="M550 1105 c-11 -13 -10 -14 4 -9 9 3 16 10 16 15 0 13 -6 11 -20 -6z"/>
<path d="M580 1078 c0 -6 -3 -9 -6 -5 -9 9 -44 -26 -44 -45 0 -9 -9 -20 -20
-23 -23 -7 -27 -25 -6 -25 8 0 16 7 20 15 7 19 26 20 26 1 0 -8 7 -16 15 -20
18 -7 20 8 2 26 -17 17 -29 48 -18 48 4 0 14 -11 21 -25 7 -14 15 -23 17 -21
3 2 -3 16 -12 30 -10 14 -13 26 -7 26 6 0 13 -6 15 -12 3 -7 6 -1 6 15 1 15
-1 27 -4 27 -3 0 -5 -5 -5 -12z"/>
<path d="M500 1035 c-7 -9 -8 -15 -2 -15 5 0 12 7 16 15 3 8 4 15 2 15 -2 0
-9 -7 -16 -15z"/>
<path d="M517 974 c-10 -10 -9 -78 2 -89 12 -13 -6 -58 -19 -50 -11 7 -12 -40
-1 -68 6 -17 8 -16 19 7 6 14 9 33 6 41 -4 8 -1 15 6 15 9 0 11 12 7 39 -2 22
0 44 5 49 5 5 8 20 6 33 -3 23 -19 35 -31 23z m-10 -186 c-3 -8 -6 -5 -6 6 -1
11 2 17 5 13 3 -3 4 -12 1 -19z"/>
<path d="M561 944 c0 -11 3 -14 6 -6 3 7 2 16 -1 19 -3 4 -6 -2 -5 -13z"/>
<path d="M480 880 c0 -5 7 -10 15 -10 8 0 15 5 15 10 0 6 -7 10 -15 10 -8 0
-15 -4 -15 -10z"/>
<path d="M551 874 c0 -11 3 -14 6 -6 3 7 2 16 -1 19 -3 4 -6 -2 -5 -13z"/>
<path d="M531 773 c-13 -46 -14 -83 -2 -83 8 0 24 111 16 118 -2 2 -8 -13 -14
-35z"/>
<path d="M2052 794 c-12 -8 -22 -24 -22 -35 0 -10 -4 -19 -10 -19 -5 0 -10 -5
-10 -12 0 -6 8 -4 19 6 11 10 17 24 15 31 -7 17 32 40 41 25 4 -6 11 -8 16 -4
12 7 2 24 -14 24 -7 0 -23 -7 -35 -16z"/>
<path d="M208 780 c-20 -19 -24 -40 -7 -40 5 0 7 -6 3 -12 -5 -9 -2 -8 9 1 11
9 15 21 11 34 -5 15 -3 19 10 14 8 -3 18 -1 22 6 4 7 4 9 -1 5 -4 -4 -13 -4
-19 1 -7 5 -18 2 -28 -9z"/>
<path d="M2135 781 c-3 -5 -2 -12 3 -15 5 -3 9 1 9 9 0 17 -3 19 -12 6z"/>
<path d="M2100 760 c-6 -11 -17 -19 -23 -18 -7 2 -25 -7 -40 -18 -23 -18 -24
-23 -11 -28 9 -4 19 -4 22 -1 3 3 0 5 -7 5 -7 0 -9 5 -5 11 4 8 9 8 17 0 6 -6
15 -11 21 -11 5 0 1 7 -10 15 -10 8 -17 15 -14 16 34 7 50 4 45 -10 -4 -11 -1
-10 15 4 11 10 20 23 19 29 0 6 -3 6 -6 -1 -2 -7 -9 -13 -14 -13 -6 0 -5 8 1
20 6 11 8 20 6 20 -3 0 -10 -9 -16 -20z"/>
<path d="M234 738 c-4 -13 -9 -40 -9 -61 -1 -28 2 -36 12 -33 8 3 11 1 8 -4
-3 -6 5 -10 19 -10 13 0 26 6 29 13 2 7 8 8 13 3 5 -5 4 -11 -3 -13 -7 -3 -13
-9 -13 -15 0 -6 7 -7 16 -4 9 3 12 2 9 -5 -4 -5 -1 -16 5 -24 7 -8 9 -15 4
-15 -5 0 -18 11 -29 24 -11 13 -36 26 -55 30 l-35 6 31 -13 c43 -17 76 -51 68
-70 -3 -10 2 -20 15 -27 14 -7 21 -7 21 0 0 5 -7 10 -15 10 -19 0 -20 19 -1
26 11 4 13 16 9 42 -6 36 -6 37 14 19 11 -9 22 -14 26 -11 11 11 -12 43 -31
44 -15 0 -64 5 -99 9 -7 0 -13 5 -13 11 0 5 6 8 13 6 6 -1 9 -1 5 1 -5 3 -4
12 1 22 10 18 9 46 -1 56 -3 4 -10 -4 -14 -17z m9 -23 c-3 -9 -8 -14 -10 -11
-3 3 -2 9 2 15 9 16 15 13 8 -4z m121 -91 c3 -8 2 -12 -4 -9 -6 3 -10 10 -10
16 0 14 7 11 14 -7z"/>
<path d="M280 720 c6 -11 15 -20 20 -20 6 0 2 9 -7 20 -10 11 -19 20 -21 20
-1 0 2 -9 8 -20z"/>
<path d="M500 689 c0 -22 4 -38 8 -35 8 5 4 76 -4 76 -2 0 -4 -18 -4 -41z"/>
<path d="M275 680 c3 -5 10 -10 16 -10 5 0 9 5 9 10 0 6 -7 10 -16 10 -8 0
-12 -4 -9 -10z"/>
<path d="M315 680 c3 -5 8 -10 11 -10 2 0 4 5 4 10 0 6 -5 10 -11 10 -5 0 -7
-4 -4 -10z"/>
<path d="M1954 668 l-19 -23 23 19 c21 18 27 26 19 26 -2 0 -12 -10 -23 -22z"/>
<path d="M1992 675 c-11 -12 -10 -15 3 -15 8 0 15 4 15 10 0 5 8 7 18 4 14 -5
15 -4 2 5 -19 14 -22 13 -38 -4z"/>
<path d="M1966 643 c1 -3 -6 -13 -17 -24 -20 -20 -26 -45 -9 -34 6 3 10 13 10
21 0 8 4 13 9 9 13 -8 26 15 14 25 -6 4 -9 5 -7 3z"/>
<path d="M350 545 c0 -8 5 -15 10 -15 6 0 10 7 10 15 0 8 -4 15 -10 15 -5 0
-10 -7 -10 -15z"/>
<path d="M345 500 c-3 -5 3 -10 14 -10 12 0 21 5 21 10 0 6 -6 10 -14 10 -8 0
-18 -4 -21 -10z"/>
</g>
</svg>
